<?xml version="1.0" encoding="UTF-8"?>
<svg version="1.1" viewBox="0 0 70 70" xmlns="http://www.w3.org/2000/svg">
 <path d="m48.048 26.882-12.54-7.24a1.014 1.014 0 0 0-1.015 0l-12.54 7.24a1.015 1.015 0 0 0-0.508 0.878v14.48c0 0.362 0.194 0.697 0.508 0.879l12.54 7.24c0.314 0.181 0.7 0.181 1.015 0l12.54-7.24c0.314-0.181 0.507-0.516 0.507-0.879v-14.48c0-0.363-0.193-0.697-0.507-0.879z" fill="#8080f2"/>
 <path d="m2.3943 33.705 14.984-26.067c0.544-0.943 1.55-1.638 2.638-1.638h29.967c1.089 0 2.094 0.695 2.639 1.638l14.983 26.01a3.1 3.1 0 0 1 0 3.074l-14.983 25.854c-0.545 0.942-1.55 1.424-2.639 1.424h-29.967c-1.088 0-2.094-0.467-2.638-1.41l-14.983-25.896a2.94 2.94 0 0 1 0-2.99zm12.407 12.534c0 0.384 0.231 0.738 0.563 0.93l19.086 11.011c0.332 0.192 0.748 0.192 1.08 0l19.1-11.011c0.332-0.192 0.564-0.546 0.564-0.93v-22.023c0-0.383-0.229-0.738-0.56-0.93l-19.087-11.009a1.084 1.084 0 0 0-1.079 0l-19.102 11.01c-0.332 0.192-0.566 0.547-0.566 0.93v22.023z" fill="#4b32c3"/>
</svg>
